# xmcd CD database file
#
# Track frame offsets:
#	182
#	2717
#	23485
#	45677
#	64127
#	111952
#	128230
#	160930
#	178020
#	205860
#
# Disc length: 3475 seconds
#
# Revision: 1
# Processed by: cddbd v1.5.1PL2 Copyright (c) Steve Scherf et al.
# Submitted via: CDex 1.40Release
#
DISCID=800d910a
DTITLE=Jeff Healey Band - Live in Chicago
DYEAR=1992
DGENRE=Blues
TTITLE0=Introduction
TTITLE1=Instrumental Tune
TTITLE2=Tore Down
TTITLE3=My Little Girl
TTITLE4=Blue Jean Blues
TTITLE5=Confidence Man
TTITLE6=When The Night Comes Falling From The Sky
TTITLE7=River Of No Return
TTITLE8=Angel Eyes
TTITLE9=All Along The Watchtower
EXTD=YEAR: 1992 ID3G: 0
EXTT0=
EXTT1=
EXTT2=
EXTT3=
EXTT4=
EXTT5=
EXTT6=
EXTT7=
EXTT8=
EXTT9=
PLAYORDER=
